<svg id="Layer_2" data-name="Layer 2" xmlns="http://www.w3.org/2000/svg" viewBox="0 0 36 36"><defs><style>.cls-1{fill:#231815;}.cls-2{fill:#fff;fill-rule:evenodd;}</style></defs><rect class="cls-1" width="36" height="36" rx="1.08"/><path class="cls-2" d="M18,1.92a16.29,16.29,0,0,0-5.15,31.74c.81.15,1.11-.35,1.11-.78s0-1.41,0-2.77c-4.53,1-5.49-2.19-5.49-2.19a4.3,4.3,0,0,0-1.81-2.38c-1.48-1,.11-1,.11-1a3.44,3.44,0,0,1,2.5,1.68A3.46,3.46,0,0,0,14,27.58a3.48,3.48,0,0,1,1-2.17C11.44,25,7.63,23.6,7.63,17.35A6.32,6.32,0,0,1,9.31,13a5.82,5.82,0,0,1,.16-4.31s1.37-.44,4.48,1.67a15.41,15.41,0,0,1,8.16,0c3.11-2.11,4.47-1.67,4.47-1.67A5.82,5.82,0,0,1,26.74,13a6.28,6.28,0,0,1,1.68,4.37c0,6.26-3.81,7.64-7.44,8a3.89,3.89,0,0,1,1.11,3c0,2.18,0,3.93,0,4.47s.29.94,1.12.78A16.29,16.29,0,0,0,18,1.92Z"/></svg>