<?xml version="1.0" standalone="no"?>
<!DOCTYPE svg PUBLIC "-//W3C//DTD SVG 20010904//EN"
 "http://www.w3.org/TR/2001/REC-SVG-20010904/DTD/svg10.dtd">
<svg version="1.0" xmlns="http://www.w3.org/2000/svg"
 width="171.000000pt" height="171.000000pt" viewBox="0 0 171.000000 171.000000"
 preserveAspectRatio="xMidYMid meet">
<metadata>
Created by potrace 1.11, written by Peter Selinger 2001-2013
</metadata>
<g transform="translate(0.000000,171.000000) scale(0.100000,-0.100000)"
fill="#000000" stroke="none">
<path d="M2 1309 l3 -401 45 -18 c41 -17 107 -70 155 -129 l20 -23 -38 22
c-20 12 -40 26 -43 31 -3 5 -15 9 -27 9 -13 0 -40 9 -62 20 -22 11 -43 20 -47
20 -4 0 -8 -23 -8 -50 0 -64 22 -100 61 -100 16 0 37 -8 47 -18 20 -20 52 -36
66 -33 4 1 27 -8 51 -19 23 -11 50 -18 59 -14 11 4 23 -1 32 -12 9 -11 13 -13
9 -7 -3 7 0 22 8 33 11 16 16 17 20 7 10 -26 -5 -67 -24 -67 -11 0 -19 4 -19
8 0 4 -17 9 -37 10 -105 5 -181 17 -255 38 -17 5 -18 -14 -18 -305 l0 -311
288 0 288 0 17 30 c10 16 42 58 73 93 l54 65 38 -10 c20 -5 47 -11 58 -12 27
-3 131 -71 143 -94 4 -9 7 -22 4 -28 -2 -6 3 -17 12 -24 18 -15 21 0 3 18 -9
9 -6 12 16 10 15 -1 32 -8 38 -15 6 -7 21 -13 34 -13 12 0 26 -4 29 -10 4 -6
118 -10 311 -10 l304 0 0 346 0 346 -31 -7 c-30 -7 -31 -6 -25 16 4 13 10 34
13 47 3 12 13 22 23 22 15 0 18 11 19 83 1 45 -2 77 -7 70 -4 -6 -27 -18 -52
-27 -42 -14 -46 -14 -64 3 -18 19 -17 20 53 58 l71 38 0 358 0 357 -855 0
-855 0 2 -401z m1239 -477 c20 -9 53 -32 73 -50 30 -26 36 -38 33 -61 -7 -41
-22 -67 -31 -52 -5 8 -19 2 -44 -18 -41 -32 -74 -38 -142 -27 -41 7 -47 12
-69 54 -13 26 -17 42 -10 36 42 -33 137 -14 158 32 14 32 14 43 -3 77 -17 31
-14 32 35 9z m-481 -53 c10 -6 6 -7 -12 -3 -18 4 -28 2 -28 -5 0 -7 6 -11 13
-9 6 2 31 -3 55 -11 29 -10 42 -20 42 -33 0 -13 8 -18 30 -18 20 0 30 5 30 15
0 23 10 18 50 -22 49 -51 66 -63 85 -63 8 0 15 -8 15 -18 0 -9 9 -23 20 -30
12 -7 18 -18 13 -25 -4 -7 -1 -7 10 2 22 18 22 32 0 24 -17 -7 -17 -6 -1 11
14 13 22 15 37 6 11 -6 37 -8 58 -6 44 6 77 -16 67 -46 -3 -10 0 -25 6 -33 10
-12 9 -15 -8 -15 -11 0 -23 -8 -26 -18 -6 -18 -51 -28 -60 -14 -3 5 -19 7 -36
4 -24 -3 -30 -9 -30 -28 0 -15 6 -24 16 -24 8 0 12 -4 9 -10 -3 -5 -1 -10 5
-10 6 0 8 -4 5 -10 -3 -6 -2 -10 4 -10 5 0 12 6 15 13 3 6 3 1 0 -13 -4 -14
-12 -32 -19 -40 -13 -15 -15 -19 -15 -41 0 -5 -4 -8 -9 -5 -5 3 -14 -1 -21 -9
-10 -12 -9 -20 4 -40 l16 -25 -47 0 c-27 0 -64 -5 -83 -10 -45 -14 -230 -23
-212 -11 21 13 -13 26 -91 34 -37 4 -64 17 -36 17 7 0 -6 11 -31 24 -29 16
-44 30 -42 40 2 9 -4 16 -13 16 -8 0 -25 11 -37 25 -12 14 -30 25 -40 25 -25
0 -23 5 12 39 l31 29 -38 13 c-21 7 -33 14 -26 16 7 2 10 10 7 17 -3 8 4 16
16 19 12 3 19 10 15 16 -7 13 17 15 31 2 18 -17 61 -21 80 -7 17 13 15 15 -29
21 -42 6 -52 13 -73 46 -13 21 -24 49 -23 61 0 13 3 17 6 11 2 -7 4 -15 3 -19
-3 -11 42 -43 70 -49 42 -9 107 12 126 40 23 36 15 104 -16 136 l-26 25 56 -4
c30 -2 62 -8 70 -13z m320 1 c0 -23 -25 -27 -33 -6 -7 16 1 26 20 26 7 0 13
-9 13 -20z m-980 -10 c0 -6 14 -19 31 -29 34 -21 64 -59 55 -68 -4 -4 -12 -1
-18 5 -7 7 -19 12 -28 12 -9 0 -24 8 -33 18 -20 22 -33 72 -18 72 6 0 11 -5
11 -10z m155 -40 c3 -5 2 -10 -4 -10 -5 0 -13 5 -16 10 -3 6 -2 10 4 10 5 0
13 -4 16 -10z m283 -33 c2 -12 -3 -17 -17 -17 -12 0 -21 6 -21 13 0 31 32 34
38 4z m-194 -39 c-3 -5 -12 -4 -20 3 -7 6 -11 15 -8 21 3 5 12 4 20 -3 7 -6
11 -15 8 -21z m101 -218 c3 -5 1 -10 -4 -10 -6 0 -11 5 -11 10 0 6 2 10 4 10
3 0 8 -4 11 -10z m761 -127 c-6 -6 -36 9 -36 18 0 5 9 4 20 -3 10 -7 18 -14
16 -15z m-26 -23 c0 -5 -5 -10 -11 -10 -5 0 -7 5 -4 10 3 6 8 10 11 10 2 0 4
-4 4 -10z m-89 -117 c16 -10 32 -26 35 -38 3 -11 8 -28 10 -37 4 -14 -1 -18
-19 -18 -24 0 -37 16 -37 47 0 8 -7 21 -15 29 -15 16 -20 34 -9 34 3 0 19 -8
35 -17z"/>
<path d="M930 541 c0 -10 25 -21 48 -21 12 1 10 5 -8 15 -29 17 -40 18 -40 6z"/>
<path d="M1010 531 c0 -10 39 -11 45 -2 2 5 -7 9 -20 9 -14 0 -25 -3 -25 -7z"/>
<path d="M1098 483 c6 -2 18 -2 25 0 6 3 1 5 -13 5 -14 0 -19 -2 -12 -5z"/>
<path d="M941 394 c-42 -18 -34 -30 10 -15 18 6 52 11 76 11 27 0 42 4 38 10
-9 15 -85 11 -124 -6z"/>
<path d="M993 333 c9 -2 23 -2 30 0 6 3 -1 5 -18 5 -16 0 -22 -2 -12 -5z"/>
</g>
</svg>
